<?xml version="1.0" standalone="no"?>
<!DOCTYPE svg PUBLIC "-//W3C//DTD SVG 20010904//EN"
 "http://www.w3.org/TR/2001/REC-SVG-20010904/DTD/svg10.dtd">
<svg version="1.0" xmlns="http://www.w3.org/2000/svg"
 width="4000.000000pt" height="1483.000000pt" viewBox="0 0 4000.000000 1483.000000"
 preserveAspectRatio="xMidYMid meet">

<g transform="translate(0.000000,1483.000000) scale(0.100000,-0.100000)"
fill="#000000" stroke="none">
<path d="M23260 14343 c-527 -36 -881 -109 -1215 -248 -328 -137 -606 -354
-816 -638 -358 -481 -429 -1162 -178 -1695 233 -495 702 -844 1499 -1114 185
-63 475 -144 705 -197 554 -129 805 -210 995 -321 330 -193 419 -576 202 -873
-48 -67 -161 -159 -252 -206 -282 -147 -747 -143 -1055 8 -318 157 -496 424
-575 864 -11 61 -22 112 -24 114 -4 4 -1889 -117 -1894 -122 -6 -6 29 -262 49
-354 103 -481 327 -898 664 -1236 224 -223 497 -376 872 -485 383 -112 831
-164 1408 -164 368 0 566 14 833 59 733 124 1269 424 1630 912 26 34 47 61 48
60 1 -1 12 -58 24 -127 58 -340 155 -633 306 -930 314 -618 803 -1096 1439
-1405 406 -198 826 -311 1338 -360 l68 -7 -103 -106 c-305 -315 -514 -666
-663 -1117 -229 -690 -257 -1635 -71 -2392 257 -1042 976 -1811 1958 -2094
666 -192 1567 -223 2261 -79 491 102 916 297 1277 586 109 88 306 285 394 394
165 207 337 505 430 745 l35 90 0 -897 1 -898 2560 0 2560 0 -2 792 -3 793
-1557 3 -1558 2 0 2435 0 2435 -1000 0 -1000 0 0 -897 0 -898 -40 100 c-55
136 -153 329 -231 453 -198 318 -486 616 -789 817 -387 256 -864 424 -1398
493 l-134 17 145 98 c537 360 982 782 1355 1284 184 249 319 468 461 754 243
486 386 963 447 1484 22 182 24 605 6 770 -88 766 -379 1400 -881 1918 -567
585 -1345 932 -2259 1008 -202 17 -671 6 -867 -20 -1019 -133 -1926 -538
-2750 -1226 -164 -137 -462 -431 -607 -598 -363 -421 -678 -933 -864 -1404
l-48 -121 -43 89 c-177 374 -455 642 -903 871 -369 189 -952 368 -1831 563
-331 73 -485 118 -606 177 -103 50 -193 133 -228 211 -71 154 -25 340 116 471
69 64 130 97 244 132 86 27 99 28 305 28 191 1 225 -2 303 -22 333 -84 520
-268 630 -617 14 -44 28 -102 32 -128 4 -27 14 -51 22 -54 8 -3 103 0 211 6
1220 70 1583 91 1615 91 35 0 37 2 37 33 0 45 -36 241 -65 358 -144 567 -462
979 -948 1228 -319 163 -734 264 -1237 301 -121 9 -676 11 -790 3z m8467 -542
c260 -36 488 -89 723 -169 418 -143 820 -380 1128 -667 50 -46 156 -179 329
-409 236 -313 262 -352 324 -481 147 -306 237 -618 285 -990 25 -184 25 -607
0 -805 -72 -590 -256 -1140 -562 -1672 -398 -693 -967 -1292 -1665 -1751
-1080 -711 -2344 -986 -3473 -756 -308 63 -555 148 -841 289 -494 244 -887
585 -1180 1025 -264 397 -420 822 -491 1340 -22 163 -26 623 -6 790 116 979
537 1856 1271 2649 195 211 437 423 766 670 273 205 333 245 506 339 107 59
202 107 211 107 8 0 71 26 139 59 493 234 1050 389 1600 446 206 21 737 13
936 -14z m233 -8658 c197 -28 402 -112 552 -223 81 -61 221 -207 273 -286 213
-319 307 -816 277 -1456 -32 -661 -149 -1052 -394 -1314 -172 -184 -418 -307
-703 -350 -127 -20 -454 -14 -560 11 -479 108 -787 408 -930 904 -71 248 -95
438 -102 808 -8 401 16 661 82 924 74 290 184 489 369 666 297 284 662 386
1136 316z"/>
<path d="M31250 12264 c-256 -24 -569 -166 -864 -392 -176 -135 -377 -367
-447 -517 -55 -120 -73 -200 -73 -340 0 -140 16 -210 74 -330 103 -211 265
-343 487 -396 76 -18 107 -21 228 -16 218 9 404 56 753 194 295 115 437 138
540 87 174 -87 187 -311 28 -469 -221 -219 -493 -228 -712 -23 l-61 58 -326
-258 c-179 -141 -326 -260 -327 -263 0 -3 25 -33 56 -67 178 -197 472 -333
724 -334 172 -1 309 36 525 143 239 117 450 264 615 429 188 187 290 343 341
522 21 73 24 103 23 248 0 150 -3 173 -27 253 -74 242 -230 438 -421 532 -118
58 -187 76 -319 82 -217 11 -481 -57 -937 -241 -263 -106 -303 -119 -372 -119
-73 0 -126 32 -157 95 -52 108 -2 223 145 334 105 79 131 88 249 88 87 0 108
-3 157 -26 32 -15 79 -47 106 -72 l48 -45 304 240 c168 132 314 249 324 259
19 19 19 20 -50 86 -149 143 -329 234 -502 254 -48 5 -89 9 -92 8 -3 -1 -21
-3 -40 -4z"/>
<path d="M28745 10658 c-187 -131 -346 -243 -353 -247 -10 -6 123 -200 490
-717 278 -390 521 -732 541 -760 64 -89 117 -234 117 -321 0 -81 -64 -168
-160 -219 -53 -28 -142 -25 -210 7 -57 27 -157 119 -212 196 l-31 42 -195
-182 c-107 -100 -245 -228 -306 -285 -61 -56 -111 -106 -111 -111 0 -20 113
-145 180 -200 138 -114 246 -173 390 -217 80 -24 106 -27 230 -27 123 0 151 3
230 27 283 84 664 341 826 556 72 95 155 268 180 375 30 130 24 316 -15 430
-44 131 -178 391 -272 531 -209 309 -958 1364 -968 1363 -6 0 -164 -109 -351
-241z"/>
<path d="M490 11015 l0 -3225 1000 0 1000 0 0 1311 0 1312 158 -6 c404 -13
586 -142 834 -589 36 -65 299 -552 584 -1083 l519 -965 1133 0 c622 0 1132 2
1132 4 0 20 -1006 1942 -1056 2020 -91 139 -280 372 -395 487 -70 71 -122 112
-192 153 -106 63 -255 131 -359 165 -38 13 -68 24 -68 26 0 2 35 11 77 20 416
93 785 299 1031 577 322 364 470 827 433 1356 -19 274 -75 491 -184 708 -87
174 -167 285 -301 420 -270 271 -566 403 -1061 474 -376 55 -601 60 -2547 60
l-1738 0 0 -3225z m3120 1904 c263 -24 434 -83 531 -186 204 -214 231 -543 65
-792 -110 -165 -223 -219 -584 -281 -208 -35 -290 -40 -714 -40 l-418 0 0 655
0 655 503 0 c276 0 554 -5 617 -11z"/>
<path d="M22600 6669 c-616 -46 -1153 -206 -1588 -476 -462 -285 -837 -711
-1058 -1201 l-44 -97 -2 835 -3 835 -1002 3 -1003 2 0 -1130 0 -1130 -1090 0
-1090 0 -2 1128 -3 1127 -995 0 -995 0 -3 -3227 -2 -3228 1000 0 1000 0 0
1305 0 1305 1090 0 1090 0 0 -1305 0 -1305 1005 0 1005 0 1 833 0 832 53 -110
c360 -753 976 -1277 1758 -1499 395 -111 825 -166 1313 -166 919 0 1651 223
2215 677 119 96 302 279 399 402 391 493 587 1040 663 1851 18 195 15 743 -6
935 -52 491 -149 850 -331 1221 -260 529 -677 951 -1205 1218 -410 208 -866
324 -1435 366 -159 11 -578 11 -735 -1z m620 -1526 c403 -59 744 -309 916
-672 147 -308 212 -767 185 -1301 -24 -477 -86 -778 -211 -1035 -168 -344
-472 -558 -885 -621 -127 -20 -454 -14 -560 11 -303 68 -551 223 -714 444
-170 231 -274 565 -311 1007 -17 190 -8 696 14 863 44 333 132 601 262 797 48
72 179 211 256 270 182 141 411 232 632 253 107 10 286 3 416 -16z"/>
<path d="M2540 6659 c-652 -49 -1174 -210 -1522 -469 -423 -315 -675 -740
-728 -1229 -17 -150 -8 -394 20 -523 113 -535 456 -939 1052 -1237 346 -174
763 -312 1343 -446 561 -130 839 -229 1012 -361 222 -170 298 -451 188 -699
-56 -125 -186 -254 -329 -327 -240 -121 -635 -137 -927 -37 -217 74 -417 237
-529 431 -76 132 -142 330 -170 514 -7 43 -15 82 -19 86 -3 4 -418 -20 -921
-52 -503 -33 -927 -60 -942 -60 -26 0 -28 -3 -28 -40 0 -100 57 -393 110 -564
152 -494 478 -964 830 -1198 209 -139 445 -240 735 -313 251 -64 490 -100 815
-125 174 -13 799 -13 955 0 690 58 1225 247 1630 573 106 85 284 270 367 381
36 49 93 133 125 187 32 55 60 99 64 99 3 0 25 -28 49 -62 262 -374 612 -682
974 -858 351 -170 711 -258 1271 -312 175 -17 783 -17 945 0 635 66 1061 218
1465 521 122 93 283 246 383 366 220 263 460 714 565 1065 27 88 68 253 64
255 -1 1 -78 25 -172 53 -93 28 -484 146 -869 262 -384 116 -700 210 -701 208
-1 -2 -19 -63 -39 -137 -87 -321 -199 -558 -359 -760 -136 -171 -367 -292
-642 -336 -118 -19 -383 -19 -502 0 -354 57 -631 254 -783 555 -102 202 -170
504 -200 884 -13 170 -13 621 1 783 45 533 181 872 459 1136 194 185 419 282
716 307 433 37 813 -122 1055 -443 67 -88 154 -261 190 -376 13 -40 29 -75 34
-78 6 -2 256 51 556 117 299 66 690 153 869 192 179 40 327 73 329 74 2 2 -16
54 -39 116 -301 804 -770 1350 -1391 1619 -411 178 -835 257 -1434 266 -528 8
-883 -32 -1280 -146 -665 -192 -1206 -577 -1553 -1108 -37 -56 -69 -102 -72
-103 -3 0 -20 39 -39 88 -301 780 -956 1178 -2081 1262 -159 12 -735 11 -900
-1z m565 -1213 c210 -44 387 -152 499 -305 74 -101 162 -317 181 -444 4 -27
14 -51 21 -54 8 -3 139 2 291 11 1089 64 1203 70 1203 64 0 -3 -7 -25 -15 -49
-69 -193 -165 -733 -165 -921 0 -27 -2 -48 -4 -48 -3 0 -44 25 -93 56 -103 64
-347 186 -483 240 -356 140 -844 278 -1544 434 -474 106 -635 165 -754 274
-171 159 -160 416 27 588 104 95 236 149 421 172 68 8 346 -4 415 -18z"/>
</g>
</svg>
