<?xml version="1.0" encoding="UTF-8"?>
<!DOCTYPE svg PUBLIC "-//W3C//DTD SVG 1.1//EN" "http://www.w3.org/Graphics/SVG/1.1/DTD/svg11.dtd">
<!-- Creator: CorelDRAW -->
<svg xmlns="http://www.w3.org/2000/svg" xml:space="preserve" width="210mm" height="297mm" version="1.1" style="shape-rendering:geometricPrecision; text-rendering:geometricPrecision; image-rendering:optimizeQuality; fill-rule:evenodd; clip-rule:evenodd"
viewBox="0 0 21000 29700"
 xmlns:xlink="http://www.w3.org/1999/xlink"
 xmlns:xodm="http://www.corel.com/coreldraw/odm/2003">
 <defs>
  <style type="text/css">
   <![CDATA[
    .fil0 {fill:black;fill-rule:nonzero}
   ]]>
  </style>
 </defs>
 <g id="Слой_x0020_1">
  <metadata id="CorelCorpID_0Corel-Layer"/>
  <path class="fil0" d="M4287.32 9078.76c-82.71,68.82 -2925.9,4214.33 -2944,4288.65 -20.68,85.33 5.17,192.68 62.03,253.25 25.85,24.77 576.39,498.23 1227.74,1048.76l1181.22 1001.96 -232.63 258.75c-266.22,297.29 -372.2,492.73 -418.72,779 -82.71,512 175.76,1051.52 607.41,1268.98 147.33,71.57 493.68,145.89 571.22,121.12 15.51,-5.51 100.81,-16.52 191.28,-27.53l160.25 -16.52 0 77.08c0,110.1 59.45,333.07 126.65,473.46 214.53,443.17 736.65,696.42 1183.8,572.55l134.4 -38.54 18.09 126.63c62.04,434.92 289.49,765.23 653.94,946.91 242.96,121.12 553.12,137.64 824.52,41.3l186.1 -68.82 18.09 71.57c7.75,38.54 49.11,143.14 90.47,233.98 211.94,448.68 710.79,712.93 1183.8,627.6 307.58,-55.06 454.91,-156.9 881.38,-602.83l385.13 -401.89 387.71 404.64c312.75,327.57 418.72,421.15 555.71,487.22 454.91,228.47 951.18,145.89 1297.53,-214.71 131.82,-137.63 292.07,-432.17 292.07,-539.52 0,-57.8 20.68,-57.8 136.99,-5.51 155.09,68.82 403.22,99.1 586.74,68.82 485.92,-79.83 873.63,-478.96 961.51,-988.21 28.44,-154.15 36.19,-170.66 82.71,-154.15 131.83,38.54 403.22,46.79 535.04,13.77 434.24,-107.36 749.57,-465.2 829.7,-935.91 20.67,-137.63 33.6,-165.16 69.78,-151.39 93.05,38.53 372.2,46.79 524.7,16.52 532.45,-112.86 917.58,-547.79 946.01,-1076.29 20.68,-393.63 -74.96,-674.41 -374.78,-1087.3 -98.22,-137.64 -186.1,-261.5 -196.44,-280.77 -12.92,-22.02 382.54,-377.12 1163.12,-1043.26 651.35,-553.28 1196.73,-1035 1214.83,-1065.28 46.52,-85.33 41.35,-187.18 -12.93,-280.77 -142.16,-247.74 -2881.96,-4186.79 -2931.07,-4217.07 -90.46,-52.3 -193.85,-41.29 -299.83,30.28 -496.26,333.07 -1150.2,509.24 -1762.77,476.21 -361.87,-22.02 -597.08,-79.83 -1085.59,-275.26 -537.62,-217.46 -710.8,-253.25 -1163.12,-250.5 -550.55,2.76 -966.69,99.1 -1517.24,360.6l-266.22 123.87 -250.72 -115.61c-139.57,-63.31 -392.87,-156.9 -563.47,-211.96 -819.36,-250.49 -1292.36,-228.47 -2106.55,101.85 -457.5,184.43 -697.87,244.99 -1059.74,267.01 -558.3,30.28 -1114.01,-104.61 -1620.62,-390.88 -279.15,-159.65 -372.2,-178.92 -465.25,-101.85l0.02 -0.01zm4903.21 608.34c328.26,90.84 754.74,250.5 744.4,283.53 -5.17,11.01 -646.18,814.78 -1429.35,1786.47 -780.59,971.69 -1434.52,1794.73 -1452.61,1825.02 -49.11,88.08 -38.78,170.66 38.77,341.32 87.88,198.19 351.52,481.72 573.81,619.35 93.05,57.8 261.06,134.88 374.79,176.17 284.32,101.85 744.4,107.35 1072.66,13.77 718.55,-206.45 1465.53,-790.01 2584.72,-2023.21l343.76 -377.12 917.58 5.51 920.16 8.26 1535.33 2064.49c907.23,1219.43 1561.17,2125.05 1599.93,2210.39 281.74,641.36 -372.19,1194.65 -1013.21,858.83 -85.29,-44.04 -183.51,-118.36 -214.53,-162.41 -74.96,-110.1 -1251,-1505.7 -1351.81,-1607.55 -98.23,-96.34 -222.29,-99.1 -328.26,-5.51 -87.88,79.83 -121.49,192.68 -85.3,291.78 12.92,35.78 343.76,448.68 736.65,913.88 620.33,740.46 718.55,867.09 754.73,993.71 82.72,280.77 -23.26,556.04 -271.39,696.43 -144.75,79.83 -351.53,85.33 -491.1,11.01 -62.04,-35.79 -354.11,-352.35 -806.44,-878.1 -390.29,-454.19 -739.23,-845.07 -778,-869.84 -193.85,-126.63 -426.48,63.31 -367.03,300.04 15.52,66.07 193.86,289.03 591.9,743.22 622.92,712.93 679.79,803.77 705.63,1134.09 36.19,498.23 -361.86,831.3 -827.11,685.41 -139.58,-44.04 -160.25,-63.31 -783.17,-779 -351.53,-407.39 -669.44,-759.74 -708.22,-784.51 -105.97,-77.08 -201.61,-63.31 -302.41,44.04 -93.05,99.1 -111.14,192.68 -59.45,294.53 15.51,30.29 253.3,316.55 532.45,638.62l506.61 580.81 -15.52 173.41c-38.77,434.92 -258.47,679.91 -612.57,679.91 -118.9,0 -196.44,-16.52 -261.06,-52.3 -51.7,-30.29 -263.64,-228.48 -467.84,-440.42l-372.2 -385.38 56.86 -137.63c33.61,-74.32 72.38,-220.21 90.47,-324.82 98.22,-583.56 -263.64,-1194.65 -790.93,-1335.03 -56.86,-13.77 -131.82,-35.79 -168.01,-44.04 -64.61,-13.77 -64.61,-19.27 -56.86,-233.98 33.6,-773.5 -563.47,-1340.54 -1305.29,-1241.45 -98.22,13.76 -193.85,30.28 -214.53,41.29 -31.01,11.01 -46.53,-22.02 -69.79,-151.39 -105.97,-597.33 -638.42,-988.21 -1199.31,-886.36 -245.55,44.04 -416.14,143.14 -633.26,368.86 -103.39,104.6 -191.27,181.67 -199.02,167.91 -5.18,-11.01 -18.09,-79.83 -28.44,-148.65 -28.43,-198.19 -155.08,-454.18 -307.58,-611.09 -258.48,-269.76 -622.92,-390.87 -974.44,-327.57 -227.45,41.29 -408.39,134.88 -602.24,313.81l-147.33 137.63 -1106.26 -941.41c-607.41,-517.5 -1103.67,-952.42 -1103.67,-963.43 0,-24.77 2517.52,-3683.06 2545.95,-3702.32 10.33,-5.51 149.91,49.55 312.75,123.87 522.11,239.48 1070.07,349.59 1587.02,322.06 431.65,-24.78 638.42,-79.83 1406.09,-374.37 160.25,-63.31 354.11,-126.62 426.47,-140.38 230.04,-44.04 620.34,-11.01 946.01,79.83l0.04 0.01zm3618.61 13.77c149.91,52.3 423.9,151.39 607.41,220.21 845.2,308.29 1664.56,269.76 2520.1,-121.12 279.15,-129.38 299.83,-132.12 338.6,-88.08 139.58,159.65 2533.03,3674.79 2514.94,3691.31 -168.01,162.41 -2114.3,1791.98 -2129.82,1786.48 -10.33,-5.51 -576.38,-756.98 -1253.58,-1673.62 -677.2,-916.63 -1256.18,-1679.12 -1287.19,-1698.39 -90.47,-52.3 -2220.28,-49.55 -2313.33,2.75 -38.77,22.02 -299.82,294.54 -584.14,608.34 -578.98,641.37 -989.95,1029.5 -1385.42,1313.02 -734.06,528.51 -1300.11,641.37 -1827.39,366.1 -180.93,-93.59 -408.39,-316.55 -387.72,-379.86 5.18,-16.52 659.11,-842.32 1452.62,-1841.53l1447.44 -1811.25 258.48 -134.88c338.6,-176.17 666.86,-280.77 1085.58,-344.08 43.94,-5.51 211.95,-8.26 374.79,-2.75 258.47,8.25 330.85,22.02 568.64,107.35l-0.01 0zm-7456.92 5725.52c268.81,132.12 374.78,360.6 374.78,814.78l0 264.26 -392.87 415.65c-418.73,440.42 -532.45,523.01 -827.11,602.83 -426.48,118.36 -790.93,-129.38 -840.04,-569.8 -28.43,-255.99 20.68,-335.83 571.23,-930.4 532.45,-575.31 648.76,-663.39 868.46,-663.39 67.2,0 170.59,27.53 245.55,66.07zm2166 575.31c255.88,159.65 343.76,520.25 193.85,790.01 -85.3,154.15 -1576.68,1736.93 -1700.75,1805.74 -144.75,79.83 -372.2,68.81 -522.11,-24.77 -227.45,-140.39 -336.02,-459.7 -242.97,-715.69 56.87,-165.16 1661.98,-1871.81 1798.97,-1915.85 147.32,-46.79 341.18,-22.02 473,60.56l0.01 0zm1468.12 968.94c49.11,24.77 131.82,93.58 186.1,148.64 175.76,178.93 219.7,520.25 95.64,770.75 -25.85,55.05 -405.8,478.96 -845.21,944.16 -752.15,795.52 -803.84,845.07 -935.67,886.35 -175.76,55.06 -242.96,55.06 -410.97,2.76 -266.23,-85.34 -400.64,-286.28 -403.21,-605.59 -2.59,-385.37 7.75,-401.89 796.09,-1252.46 385.13,-415.65 723.73,-773.5 752.15,-798.27 28.44,-22.02 126.65,-68.82 219.7,-104.61 193.86,-71.56 400.64,-68.81 545.38,8.26l0 0.01zm1013.21 1500.2c147.33,60.55 242.96,148.64 317.92,302.79 64.62,129.38 64.62,418.4 0,550.54 -64.61,132.12 -987.36,1117.58 -1114.01,1191.9 -74.96,41.29 -149.91,57.8 -271.4,57.8 -240.37,0 -416.14,-107.35 -516.94,-313.8 -59.45,-123.87 -113.73,-418.41 -95.64,-500.99 10.34,-35.78 294.66,-360.6 635.84,-721.2l620.33 -657.88 142.17 19.26c80.12,8.26 206.77,41.29 281.73,71.57l0 0.01z"/>
 </g>
</svg>
