<?xml version="1.0" encoding="UTF-8" standalone="no"?>
<!DOCTYPE svg PUBLIC "-//W3C//DTD SVG 20010904//EN" "http://www.w3.org/TR/2001/REC-SVG-20010904/DTD/svg10.dtd">
<svg version="1.0" xmlns="http://www.w3.org/2000/svg" width="1000.000000pt" height="1000.000000pt" viewBox="0 0 1000.000000 1000.000000" preserveAspectRatio="xMidYMid meet">

<g transform="translate(0.000000,1000.000000) scale(0.100000,-0.100000)" fill="#000000" stroke="none">
<path d="M2643 7182 c-32 -25 -1132 -1531 -1139 -1558 -8 -31 2 -70 24 -92 10 -9 223 -181 475 -381 l457 -364 -90 -94 c-103 -108 -144 -179 -162 -283 -32 -186 68 -382 235 -461 57 -26 191 -53 221 -44 6 2 39 6 74 10 l62 6 0 -28 c0 -40 23 -121 49 -172 83 -161 285 -253 458 -208 l52 14 7 -46 c24 -158 112 -278 253 -344 94 -44 214 -50 319 -15 l72 25 7 -26 c3 -14 19 -52 35 -85 82 -163 275 -259 458 -228 119 20 176 57 341 219 l149 146 150 -147 c121 -119 162 -153 215 -177 176 -83 368 -53 502 78 51 50 113 157 113 196 0 21 8 21 53 2 60 -25 156 -36 227 -25 188 29 338 174 372 359 11 56 14 62 32 56 51 -14 156 -17 207 -5 168 39 290 169 321 340 8 50 13 60 27 55 36 -14 144 -17 203 -6 206 41 355 199 366 391 8 143 -29 245 -145 395 -38 50 -72 95 -76 102 -5 8 148 137 450 379 252 201 463 376 470 387 18 31 16 68 -5 102 -55 90 -1115 1521 -1134 1532 -35 19 -75 15 -116 -11 -192 -121 -445 -185 -682 -173 -140 8 -231 29 -420 100 -208 79 -275 92 -450 91 -213 -1 -374 -36 -587 -131 l-103 -45 -97 42 c-54 23 -152 57 -218 77 -317 91 -500 83 -815 -37 -177 -67 -270 -89 -410 -97 -216 -11 -431 38 -627 142 -108 58 -144 65 -180 37z m1897 -221 c127 -33 292 -91 288 -103 -2 -4 -250 -296 -553 -649 -302 -353 -555 -652 -562 -663 -19 -32 -15 -62 15 -124 34 -72 136 -175 222 -225 36 -21 101 -49 145 -64 110 -37 288 -39 415 -5 278 75 567 287 1000 735 l133 137 355 -2 356 -3 594 -750 c351 -443 604 -772 619 -803 109 -233 -144 -434 -392 -312 -33 16 -71 43 -83 59 -29 40 -484 547 -523 584 -38 35 -86 36 -127 2 -34 -29 -47 -70 -33 -106 5 -13 133 -163 285 -332 240 -269 278 -315 292 -361 32 -102 -9 -202 -105 -253 -56 -29 -136 -31 -190 -4 -24 13 -137 128 -312 319 -151 165 -286 307 -301 316 -75 46 -165 -23 -142 -109 6 -24 75 -105 229 -270 241 -259 263 -292 273 -412 14 -181 -140 -302 -320 -249 -54 16 -62 23 -303 283 -136 148 -259 276 -274 285 -41 28 -78 23 -117 -16 -36 -36 -43 -70 -23 -107 6 -11 98 -115 206 -232 l196 -211 -6 -63 c-15 -158 -100 -247 -237 -247 -46 0 -76 6 -101 19 -20 11 -102 83 -181 160 l-144 140 22 50 c13 27 28 80 35 118 38 212 -102 434 -306 485 -22 5 -51 13 -65 16 -25 5 -25 7 -22 85 13 281 -218 487 -505 451 -38 -5 -75 -11 -83 -15 -12 -4 -18 8 -27 55 -41 217 -247 359 -464 322 -95 -16 -161 -52 -245 -134 -40 -38 -74 -66 -77 -61 -2 4 -7 29 -11 54 -11 72 -60 165 -119 222 -100 98 -241 142 -377 119 -88 -15 -158 -49 -233 -114 l-57 -50 -428 342 c-235 188 -427 346 -427 350 0 9 974 1338 985 1345 4 2 58 -18 121 -45 202 -87 414 -127 614 -117 167 9 247 29 544 136 62 23 137 46 165 51 89 16 240 4 366 -29z m1400 -5 c58 -19 164 -55 235 -80 327 -112 644 -98 975 44 108 47 116 48 131 32 54 -58 980 -1335 973 -1341 -65 -59 -818 -651 -824 -649 -4 2 -223 275 -485 608 -262 333 -486 610 -498 617 -35 19 -859 18 -895 -1 -15 -8 -116 -107 -226 -221 -224 -233 -383 -374 -536 -477 -284 -192 -503 -233 -707 -133 -70 34 -158 115 -150 138 2 6 255 306 562 669 l560 658 100 49 c131 64 258 102 420 125 17 2 82 3 145 1 100 -3 128 -8 220 -39z m-2885 -2080 c104 -48 145 -131 145 -296 l0 -96 -152 -151 c-162 -160 -206 -190 -320 -219 -165 -43 -306 47 -325 207 -11 93 8 122 221 338 206 209 251 241 336 241 26 0 66 -10 95 -24z m838 -209 c99 -58 133 -189 75 -287 -33 -56 -610 -631 -658 -656 -56 -29 -144 -25 -202 9 -88 51 -130 167 -94 260 22 60 643 680 696 696 57 17 132 8 183 -22z m568 -352 c19 -9 51 -34 72 -54 68 -65 85 -189 37 -280 -10 -20 -157 -174 -327 -343 -291 -289 -311 -307 -362 -322 -68 -20 -94 -20 -159 -1 -103 31 -155 104 -156 220 -1 140 3 146 308 455 149 151 280 281 291 290 11 8 49 25 85 38 75 26 155 25 211 -3z m392 -545 c57 -22 94 -54 123 -110 25 -47 25 -152 0 -200 -25 -48 -382 -406 -431 -433 -29 -15 -58 -21 -105 -21 -93 0 -161 39 -200 114 -23 45 -44 152 -37 182 4 13 114 131 246 262 l240 239 55 -7 c31 -3 80 -15 109 -26z"/>
<path d="M4206 201 c-4 -7 -5 -15 -2 -18 9 -9 19 4 14 18 -4 11 -6 11 -12 0z"/>
<path d="M4290 206 c0 -3 5 -17 12 -31 8 -18 14 -22 20 -13 4 7 7 20 7 28 0 10 -3 8 -9 -5 -7 -16 -9 -17 -9 -3 -1 15 -21 38 -21 24z"/>
<path d="M4351 194 c0 -11 3 -14 6 -6 3 7 2 16 -1 19 -3 4 -6 -2 -5 -13z"/>
<path d="M4386 190 c3 -14 10 -29 15 -34 14 -16 10 6 -7 34 l-15 25 7 -25z"/>
<path d="M4411 194 c0 -11 3 -14 6 -6 3 7 2 16 -1 19 -3 4 -6 -2 -5 -13z"/>
<path d="M4474 180 c1 -24 36 -44 36 -21 0 6 -6 8 -14 5 -10 -4 -16 3 -19 18 -4 22 -4 21 -3 -2z"/>
<path d="M4588 203 c6 -2 18 -2 25 0 6 3 1 5 -13 5 -14 0 -19 -2 -12 -5z"/>
<path d="M4641 178 c2 -30 2 -31 6 -5 2 15 9 27 15 27 5 0 8 -6 5 -14 -3 -8 2 -20 11 -28 13 -11 14 -11 7 2 -5 8 -10 22 -10 30 0 8 -8 16 -17 18 -15 3 -18 -3 -17 -30z"/>
<path d="M4731 190 c14 -31 19 -36 19 -24 0 6 -7 19 -16 30 -14 18 -14 18 -3 -6z"/>
<path d="M4776 201 c-4 -5 3 -7 14 -4 23 6 26 13 6 13 -8 0 -17 -4 -20 -9z"/>
<path d="M4840 206 c0 -2 9 -6 20 -9 11 -3 18 -1 14 4 -5 9 -34 13 -34 5z"/>
<path d="M4966 201 c-3 -5 3 -7 14 -4 16 4 20 0 20 -17 0 -18 -4 -21 -21 -17 -16 4 -19 3 -11 -5 17 -17 44 -1 40 24 -3 24 -32 36 -42 19z"/>
<path d="M5031 178 c2 -30 2 -31 6 -5 2 15 9 27 15 27 5 0 8 -6 5 -14 -3 -8 2 -20 11 -28 13 -11 14 -11 7 2 -5 8 -10 22 -10 30 0 8 -8 16 -17 18 -15 3 -18 -3 -17 -30z"/>
<path d="M5095 180 c0 -16 3 -30 8 -30 4 0 7 14 7 30 0 17 -3 30 -7 30 -5 0 -8 -13 -8 -30z"/>
<path d="M5140 200 c0 -5 5 -10 11 -10 5 0 7 5 4 10 -3 6 -8 10 -11 10 -2 0 -4 -4 -4 -10z"/>
<path d="M5216 201 c-4 -5 3 -7 14 -4 23 6 26 13 6 13 -8 0 -17 -4 -20 -9z"/>
<path d="M5288 203 c7 -3 16 -2 19 1 4 3 -2 6 -13 5 -11 0 -14 -3 -6 -6z"/>
<path d="M5340 189 c-7 -11 -10 -23 -7 -25 2 -2 9 7 15 21 14 30 7 33 -8 4z"/>
<path d="M5406 201 c-4 -5 3 -7 14 -4 23 6 26 13 6 13 -8 0 -17 -4 -20 -9z"/>
<path d="M5478 203 c7 -3 16 -2 19 1 4 3 -2 6 -13 5 -11 0 -14 -3 -6 -6z"/>
<path d="M5538 203 c6 -2 18 -2 25 0 6 3 1 5 -13 5 -14 0 -19 -2 -12 -5z"/>
<path d="M5636 201 c-4 -5 3 -7 14 -4 23 6 26 13 6 13 -8 0 -17 -4 -20 -9z"/>
<path d="M5694 195 c-13 -32 23 -63 40 -36 4 5 -3 7 -14 4 -16 -4 -20 0 -20 17 0 17 4 21 20 17 11 -3 18 -1 14 4 -8 14 -34 11 -40 -6z"/>
<path d="M5760 178 c0 -36 4 -35 14 5 4 16 2 27 -4 27 -5 0 -10 -14 -10 -32z"/>
<path d="M5791 187 c-13 -21 -12 -21 5 -5 10 10 16 20 13 22 -3 3 -11 -5 -18 -17z"/>
<path d="M4180 178 c0 -9 5 -20 10 -23 13 -8 13 5 0 25 -8 13 -10 13 -10 -2z"/>
<path d="M4226 174 c-4 -9 -4 -19 -1 -22 2 -3 7 3 11 12 4 9 4 19 1 22 -2 3 -7 -3 -11 -12z"/>
<path d="M4707 171 c-4 -17 -3 -21 5 -13 5 5 8 16 6 23 -3 8 -7 3 -11 -10z"/>
<path d="M5360 176 c0 -8 4 -17 9 -20 5 -4 7 3 4 14 -6 23 -13 26 -13 6z"/>
<path d="M5478 183 c7 -3 16 -2 19 1 4 3 -2 6 -13 5 -11 0 -14 -3 -6 -6z"/>
<path d="M4270 166 c0 -9 5 -16 10 -16 6 0 10 4 10 9 0 6 -4 13 -10 16 -5 3 -10 -1 -10 -9z"/>
<path d="M4367 173 c-4 -3 -7 -11 -7 -17 0 -6 5 -5 12 2 6 6 9 14 7 17 -3 3 -9 2 -12 -2z"/>
<path d="M5166 167 c3 -10 9 -15 12 -12 3 3 0 11 -7 18 -10 9 -11 8 -5 -6z"/>
<path d="M5246 168 c5 -8 0 -9 -16 -5 -16 4 -20 3 -12 -5 6 -6 18 -8 26 -5 18 7 22 27 5 27 -5 0 -7 -5 -3 -12z"/>
<path d="M5436 168 c5 -8 0 -9 -16 -5 -16 4 -20 3 -12 -5 6 -6 18 -8 26 -5 18 7 22 27 5 27 -5 0 -7 -5 -3 -12z"/>
<path d="M5555 171 c3 -5 -2 -12 -10 -14 -12 -4 -12 -5 1 -3 19 1 32 26 14 26 -6 0 -9 -4 -5 -9z"/>
<path d="M4778 158 c5 -5 16 -8 23 -6 8 3 3 7 -10 11 -17 4 -21 3 -13 -5z"/>
<path d="M4855 160 c-16 -7 -17 -9 -3 -9 9 -1 20 4 23 9 7 11 7 11 -20 0z"/>
<path d="M5638 158 c5 -5 16 -8 23 -6 8 3 3 7 -10 11 -17 4 -21 3 -13 -5z"/>
<path d="M4548 153 c7 -3 16 -2 19 1 4 3 -2 6 -13 5 -11 0 -14 -3 -6 -6z"/>
<path d="M4918 153 c7 -3 16 -2 19 1 4 3 -2 6 -13 5 -11 0 -14 -3 -6 -6z"/>
<path d="M5478 153 c7 -3 16 -2 19 1 4 3 -2 6 -13 5 -11 0 -14 -3 -6 -6z"/>
</g>
</svg>